<?xml version="1.0" standalone="no"?>
<!DOCTYPE svg PUBLIC "-//W3C//DTD SVG 20010904//EN"
 "http://www.w3.org/TR/2001/REC-SVG-20010904/DTD/svg10.dtd">
<svg version="1.0" xmlns="http://www.w3.org/2000/svg"
 width="640.000000pt" height="640.000000pt" viewBox="0 0 640.000000 640.000000"
 preserveAspectRatio="xMidYMid meet">
<metadata>
Created by potrace 1.11, written by Peter Selinger 2001-2013
</metadata>
<g transform="translate(0.000000,640.000000) scale(0.100000,-0.100000)"
fill="#000000" stroke="none">
<path d="M2739 6214 c-179 -139 -236 -190 -404 -358 -246 -247 -443 -511 -571
-767 -20 -41 -54 -96 -75 -122 -32 -41 -38 -57 -44 -115 -4 -37 -8 -72 -10
-78 -2 -6 -52 -39 -112 -72 -125 -70 -234 -145 -281 -194 -76 -80 -121 -298
-103 -507 l11 -122 -70 -118 c-117 -198 -125 -220 -124 -336 1 -100 12 -193
40 -335 23 -115 43 -169 86 -237 l40 -62 -26 -124 c-32 -151 -32 -195 -5 -250
29 -57 109 -147 194 -220 76 -65 73 -61 105 -161 28 -93 63 -166 110 -236 48
-71 87 -104 190 -161 66 -37 80 -48 80 -69 1 -46 38 -195 63 -251 16 -36 52
-85 97 -132 69 -74 72 -78 81 -143 24 -170 45 -225 128 -339 56 -76 62 -92 30
-75 -19 11 -33 -1 -152 -122 -169 -172 -241 -271 -284 -396 -37 -106 -38 -112
-19 -112 9 0 19 24 30 70 28 127 80 202 271 397 130 133 140 138 210 109 38
-16 43 -30 20 -63 -20 -29 -170 -330 -194 -390 -11 -26 -27 -65 -35 -86 -9
-20 -12 -37 -8 -37 5 0 22 30 37 68 92 219 216 447 339 625 154 222 324 418
391 448 73 34 247 17 297 -28 28 -25 204 -387 276 -568 60 -150 135 -365 167
-482 11 -38 23 -63 31 -63 19 0 19 1 -30 151 -110 341 -213 596 -338 842 -68
134 -103 168 -193 188 -76 17 -201 8 -257 -20 -47 -22 -139 -123 -237 -259
l-46 -64 -6 34 c-3 18 -13 48 -23 66 -16 32 -16 40 -2 130 21 134 7 185 -87
330 l-34 52 -6 243 c-11 471 -71 880 -214 1437 -138 541 -154 627 -158 875 -2
94 -8 195 -13 225 -6 30 -7 58 -3 62 3 4 27 0 52 -9 25 -9 53 -14 63 -10 50
19 112 255 156 592 34 263 58 395 91 495 73 224 298 614 453 787 50 55 124
118 131 111 2 -2 11 -31 20 -63 26 -101 19 -381 -16 -565 -55 -290 -168 -624
-289 -855 -23 -44 -32 -69 -21 -55 l21 25 22 -25 c49 -57 72 -130 76 -235 2
-56 -1 -118 -7 -139 l-10 -39 25 24 c35 32 74 103 74 133 0 13 -4 37 -10 53
l-10 28 17 -24 c67 -94 144 -192 191 -242 30 -33 53 -61 51 -64 -2 -2 -69 -7
-149 -10 -140 -7 -146 -6 -190 17 -50 27 -109 105 -111 147 -1 19 -3 21 -6 7
-10 -36 20 -107 65 -157 24 -27 42 -52 39 -56 -10 -9 -107 26 -174 63 -34 19
-80 55 -104 82 l-42 47 24 -44 c30 -54 110 -127 181 -163 l52 -27 -29 -8 c-17
-4 -73 -8 -126 -8 -89 0 -100 2 -168 36 -40 20 -66 30 -59 23 28 -27 142 -76
223 -96 46 -12 82 -25 79 -30 -3 -4 -22 -17 -42 -28 -29 -15 -32 -19 -16 -20
12 0 41 7 64 15 23 8 46 15 51 15 4 0 1 -21 -7 -47 -36 -118 -27 -276 26 -416
28 -73 35 -71 10 3 -41 121 -33 335 16 435 13 28 22 41 18 30 -39 -133 -44
-227 -19 -334 31 -131 121 -253 225 -307 48 -25 66 -29 140 -29 76 0 91 4 146
32 139 72 235 245 252 456 l7 80 57 -84 c31 -47 61 -96 67 -110 30 -71 41
-325 20 -448 -7 -36 -22 -90 -35 -118 -34 -79 -18 -64 22 20 40 86 61 175 70
312 l7 100 49 -100 c26 -55 48 -97 48 -94 1 34 -144 490 -204 643 -20 50 -34
91 -32 93 2 2 18 -20 36 -49 91 -148 236 -334 364 -466 100 -103 256 -244 196
-177 -19 22 -40 44 -46 50 -20 19 -149 170 -193 225 -74 92 -77 96 -41 64 19
-17 112 -91 205 -165 94 -73 186 -146 206 -162 l35 -30 -30 -47 -31 -48 -40
37 -40 36 33 -35 c37 -42 38 -48 13 -98 -43 -84 -73 -196 -78 -292 -5 -95 -5
-95 36 -185 23 -49 39 -95 37 -102 -4 -9 -27 -13 -68 -14 l-63 -1 44 -9 c24
-5 46 -11 49 -13 13 -14 -134 -128 -226 -176 -70 -37 -149 -47 -236 -31 -78
14 -117 43 -161 116 -41 70 -46 65 -9 -9 39 -79 67 -103 145 -123 38 -9 69
-20 69 -24 0 -4 -14 -12 -30 -19 -63 -26 -218 10 -389 92 -96 45 -155 71 -386
165 -88 35 -187 79 -220 96 -78 41 -218 181 -273 272 -23 39 -42 65 -42 60 0
-15 86 -152 126 -202 79 -97 123 -130 306 -230 337 -184 614 -371 676 -456
115 -155 315 -532 441 -830 114 -271 224 -587 315 -904 55 -192 79 -335 69
-415 -5 -37 -4 -38 25 -38 27 0 34 7 72 78 46 84 225 385 296 497 50 79 84
101 167 111 73 9 150 -15 206 -63 69 -59 71 -68 71 -363 0 -209 3 -260 13
-260 11 0 13 50 10 267 -2 148 -6 278 -8 289 -7 31 -67 86 -133 119 -49 26
-68 30 -137 30 -129 0 -139 -8 -272 -221 -62 -98 -116 -180 -121 -182 -5 -1
-14 10 -21 25 -43 94 -172 253 -206 253 -6 0 -19 26 -29 58 -10 31 -39 118
-66 192 -26 74 -53 168 -59 209 -7 41 -26 109 -43 150 -18 46 -33 107 -38 152
-6 53 -23 112 -55 195 -44 110 -48 126 -50 219 -2 81 -10 127 -43 245 -22 80
-42 155 -45 168 -3 12 4 55 15 94 15 52 19 88 15 128 l-6 55 42 19 c67 32 208
131 257 180 l44 46 -17 29 c-16 27 -16 29 8 51 23 22 31 42 49 121 3 16 53 74
120 142 l115 116 8 -57 c11 -77 8 -171 -8 -234 -9 -41 -23 -63 -64 -104 -30
-31 -64 -54 -83 -59 -26 -5 -32 -11 -32 -33 0 -52 21 -100 60 -143 l41 -44
-31 49 c-16 27 -33 65 -36 83 -8 41 6 58 89 115 166 113 353 341 465 568 l47
95 0 165 c-1 209 -24 346 -94 553 l-30 88 27 -22 c43 -33 159 -167 222 -255
110 -155 208 -361 254 -535 l25 -94 1 56 c0 88 -28 351 -54 504 -28 164 -62
305 -110 465 -19 63 -33 116 -32 117 4 5 155 -310 192 -400 18 -45 33 -78 34
-74 0 16 -71 248 -115 372 -79 225 -233 485 -408 693 l-36 43 17 35 c15 32 20
35 47 30 40 -8 184 -77 239 -115 24 -17 70 -54 102 -83 86 -79 48 -22 -60 90
-50 52 -130 124 -177 161 -84 65 -85 67 -74 95 7 15 18 32 26 37 8 5 9 9 3 9
-7 0 9 54 38 126 27 70 47 133 44 140 -11 29 -322 12 -516 -26 l-99 -20 -88
34 c-240 93 -525 166 -650 166 -117 0 -335 -53 -475 -114 -21 -9 -38 -15 -38
-13 0 2 26 21 58 42 75 50 197 150 217 178 8 12 15 37 15 57 -1 65 -106 177
-222 236 -67 34 -80 30 -24 -7 62 -42 100 -92 100 -134 0 -57 -70 -179 -154
-268 -70 -75 -188 -172 -198 -162 -2 2 3 44 11 92 31 173 40 283 34 441 -4
144 -17 222 -37 222 -4 0 -63 -43 -131 -96z m-122 -156 c-78 -106 -199 -293
-251 -389 -96 -178 -136 -312 -191 -635 -59 -343 -116 -592 -160 -697 -14 -33
-18 -37 -43 -31 -61 15 -79 32 -120 116 -22 46 -53 126 -69 178 -25 87 -28
109 -28 250 l0 155 43 86 c98 198 307 473 564 745 100 105 294 294 303 294 3
0 -19 -33 -48 -72z m642 -43 c60 -65 58 -103 -10 -187 l-50 -63 70 73 c73 75
95 77 42 4 -40 -54 -129 -127 -238 -194 -160 -99 -166 -99 -62 3 107 105 173
188 213 267 l27 53 -25 45 c-13 24 -21 44 -17 44 5 0 27 -20 50 -45z m606
-340 c226 -60 442 -145 644 -253 69 -37 131 -66 138 -64 7 2 12 -2 11 -8 -2
-5 13 -20 32 -31 l35 -21 -25 21 c-30 24 -16 27 33 6 20 -8 42 -15 49 -15 7 1
-23 16 -67 33 -78 32 -146 66 -134 67 3 0 34 -11 68 -26 35 -14 65 -23 67 -21
3 2 -72 37 -167 78 l-171 74 44 13 c106 30 491 72 502 53 6 -9 -13 -56 -78
-193 l-28 -57 -40 15 c-23 8 -43 12 -45 10 -2 -2 20 -12 49 -22 29 -10 46 -20
36 -22 -9 -2 -19 -14 -22 -28 l-7 -25 -32 21 c-47 32 -1 -6 69 -57 33 -23 82
-63 109 -88 l50 -46 -65 45 c-167 118 -480 291 -560 310 l-25 6 25 -12 c120
-56 250 -124 307 -160 83 -52 244 -170 239 -176 -2 -2 -21 5 -43 16 -81 41
-320 101 -524 132 -74 12 -204 36 -289 55 -165 37 -299 60 -306 52 -2 -2 20
-9 49 -16 54 -12 173 -56 127 -47 -14 3 -81 12 -150 21 -146 19 -169 18 -620
-50 -162 -25 -309 -47 -326 -49 -47 -6 -54 7 -37 67 27 92 34 96 245 142 107
24 110 25 43 19 -38 -3 -100 -12 -137 -20 -37 -9 -78 -14 -90 -12 -19 4 -15 8
27 27 73 34 267 96 364 117 47 10 80 19 73 22 -18 6 -230 -44 -347 -83 -123
-40 -125 -40 -125 -20 0 10 41 36 109 69 61 30 107 57 103 62 -4 4 -2 4 5 0 6
-3 33 2 60 13 64 25 192 61 278 77 116 22 347 12 470 -21z m700 -263 c-3 -3
-11 0 -18 7 -9 10 -8 11 6 5 10 -3 15 -9 12 -12z m152 -265 c2 -3 -1 -15 -7
-27 l-12 -22 -29 28 c-16 15 -29 31 -29 35 0 7 68 -5 77 -14z m-1751 -756 c90
-96 162 -177 159 -179 -2 -2 -29 -1 -59 2 l-55 7 -99 147 c-55 81 -112 167
-127 192 -25 41 -26 43 -5 25 13 -11 97 -98 186 -194z m121 -377 c74 -29 193
-162 193 -214 0 -46 -17 -60 -73 -60 -121 0 -267 125 -267 227 1 67 55 85 147
47z m-421 -215 c15 -109 44 -182 95 -242 61 -70 116 -99 192 -100 116 -1 220
82 268 213 13 37 28 60 40 63 10 3 17 2 14 -3 -3 -4 2 -13 10 -20 22 -19 19
-40 -21 -119 -70 -140 -185 -224 -308 -223 -181 1 -325 151 -356 373 -13 91
-1 146 32 144 21 -1 24 -10 34 -86z m-906 -189 c7 -47 6 -88 -3 -150 -15 -99
-9 -152 29 -254 26 -70 146 -318 186 -386 l21 -35 -43 40 c-23 22 -64 66 -91
98 -27 32 -49 54 -49 50 0 -5 34 -67 76 -138 42 -72 101 -178 130 -237 97
-193 181 -430 96 -271 -52 98 -113 174 -137 171 -18 -3 -20 -11 -23 -71 -2
-45 3 -87 14 -119 9 -27 17 -48 19 -46 1 2 -2 29 -8 61 -13 71 -2 89 37 61 43
-31 156 -192 156 -222 0 -5 -9 -12 -20 -15 -30 -8 -44 -48 -35 -104 l8 -48 8
35 c9 41 35 63 59 50 14 -8 18 -31 24 -133 7 -136 -2 -393 -15 -380 -4 4 -9
69 -11 143 -3 118 -6 141 -27 180 -26 50 -172 199 -268 274 l-63 49 7 72 c5
66 3 76 -20 116 -15 24 -88 106 -164 181 l-138 138 62 187 c34 104 64 204 67
224 11 61 -12 132 -79 249 l-65 112 55 50 c30 27 85 85 122 130 l68 80 2 -38
c2 -22 7 -68 13 -104z m1208 106 c54 -28 132 -132 117 -156 -16 -26 -103 10
-143 59 -28 35 -44 82 -31 97 14 18 23 18 57 0z m1289 -365 c25 -37 29 -71 11
-89 -18 -18 -33 -15 -67 14 -35 29 -39 53 -15 90 21 32 42 28 71 -15z m108
-198 c-28 -51 -160 -188 -209 -217 -52 -30 -123 -36 -133 -10 -3 8 -2 38 3 66
9 49 10 51 46 53 21 1 58 15 87 34 52 34 180 164 182 185 0 6 10 -9 21 -33 20
-44 20 -46 3 -78z m-196 55 c9 -15 12 -30 9 -34 -12 -12 -58 25 -58 47 0 29
30 21 49 -13z m86 -13 c-3 -31 -10 -39 -24 -30 -21 12 -4 49 26 55 1 0 0 -11
-2 -25z m-55 -72 c-41 -35 -109 -73 -132 -73 -26 0 -30 15 -16 67 10 42 13 45
18 23 9 -37 41 -36 91 3 37 29 46 32 58 21 12 -11 9 -17 -19 -41z m-56 -245
c-8 -40 -31 -75 -55 -88 -15 -9 -20 -2 -38 45 -12 31 -21 58 -21 60 0 2 21 6
48 8 26 2 53 4 60 5 10 2 12 -6 6 -30z m120 -2398 c24 -33 63 -96 86 -142 l43
-83 -42 -65 c-22 -36 -41 -62 -41 -58 0 4 -27 97 -60 206 -33 110 -60 202 -60
206 0 17 35 -13 74 -64z"/>
<path d="M3338 5583 c7 -3 16 -2 19 1 4 3 -2 6 -13 5 -11 0 -14 -3 -6 -6z"/>
<path d="M4098 5513 c7 -3 16 -2 19 1 4 3 -2 6 -13 5 -11 0 -14 -3 -6 -6z"/>
<path d="M4228 5483 c7 -3 16 -2 19 1 4 3 -2 6 -13 5 -11 0 -14 -3 -6 -6z"/>
<path d="M4270 5470 c8 -5 20 -10 25 -10 6 0 3 5 -5 10 -8 5 -19 10 -25 10 -5
0 -3 -5 5 -10z"/>
<path d="M3193 5453 c9 -2 25 -2 35 0 9 3 1 5 -18 5 -19 0 -27 -2 -17 -5z"/>
<path d="M4862 5301 c-9 -5 6 -10 40 -14 85 -11 108 -6 43 9 -72 16 -67 16
-83 5z"/>
<path d="M2363 3983 c9 -2 23 -2 30 0 6 3 -1 5 -18 5 -16 0 -22 -2 -12 -5z"/>
<path d="M2590 3486 c0 -11 51 -95 61 -102 6 -3 -5 18 -22 48 -38 62 -39 64
-39 54z"/>
<path d="M5261 3254 c0 -11 3 -14 6 -6 3 7 2 16 -1 19 -3 4 -6 -2 -5 -13z"/>
<path d="M2990 3130 c8 -5 20 -10 25 -10 6 0 3 5 -5 10 -8 5 -19 10 -25 10 -5
0 -3 -5 5 -10z"/>
<path d="M3208 3063 c6 -2 18 -2 25 0 6 3 1 5 -13 5 -14 0 -19 -2 -12 -5z"/>
<path d="M3913 2683 c9 -2 23 -2 30 0 6 3 -1 5 -18 5 -16 0 -22 -2 -12 -5z"/>
<path d="M2666 568 c-8 -64 -58 -290 -102 -453 -13 -50 -24 -96 -24 -102 0
-20 38 -15 44 5 35 120 108 593 94 608 -3 2 -9 -24 -12 -58z"/>
</g>
</svg>
